<svg width="52" height="24" viewBox="0 0 52 24" fill="none" xmlns="http://www.w3.org/2000/svg">
<rect x="0.5" y="0.5" width="51" height="23" rx="11.5" stroke="#98248D"/>
<path fill-rule="evenodd" clip-rule="evenodd" d="M39 21C43.9706 21 48 16.9706 48 12C48 7.02944 43.9706 3 39 3C34.0294 3 30 7.02944 30 12C30 16.9706 34.0294 21 39 21Z" fill="#98248D"/>
<path d="M15.7363 12.7051C15.7363 14.0996 15.3867 15.1836 14.6875 15.957C13.9922 16.7305 13.0059 17.1172 11.7285 17.1172C10.4355 17.1172 9.44141 16.7344 8.74609 15.9688C8.05469 15.1992 7.70898 14.1074 7.70898 12.6934C7.70898 11.2793 8.05664 10.1934 8.75195 9.43555C9.45117 8.67773 10.4473 8.29883 11.7402 8.29883C13.0137 8.29883 13.998 8.68359 14.6934 9.45312C15.3887 10.2227 15.7363 11.3066 15.7363 12.7051ZM9.19727 12.7051C9.19727 13.7598 9.41016 14.5605 9.83594 15.1074C10.2617 15.6504 10.8926 15.9219 11.7285 15.9219C12.5605 15.9219 13.1875 15.6523 13.6094 15.1133C14.0352 14.5742 14.248 13.7715 14.248 12.7051C14.248 11.6543 14.0371 10.8574 13.6152 10.3145C13.1973 9.77148 12.5723 9.5 11.7402 9.5C10.9004 9.5 10.2656 9.77148 9.83594 10.3145C9.41016 10.8574 9.19727 11.6543 9.19727 12.7051ZM24.7129 17H22.9961L18.7832 10.1738H18.7363L18.7656 10.5547C18.8203 11.2812 18.8477 11.9453 18.8477 12.5469V17H17.5762V8.43359H19.2754L23.4766 15.2246H23.5117C23.5039 15.1348 23.4883 14.8086 23.4648 14.2461C23.4414 13.6797 23.4297 13.2383 23.4297 12.9219V8.43359H24.7129V17Z" fill="#98248D"/>
</svg>
