<svg width="52" height="24" viewBox="0 0 52 24" fill="none" xmlns="http://www.w3.org/2000/svg">
<rect x="0.5" y="0.5" width="51" height="23" rx="11.5" stroke="#808080"/>
<path fill-rule="evenodd" clip-rule="evenodd" d="M13 21C17.9706 21 22 16.9706 22 12C22 7.02944 17.9706 3 13 3C8.02944 3 4 7.02944 4 12C4 16.9706 8.02944 21 13 21Z" fill="black" fill-opacity="0.5"/>
<path d="M31.7363 12.7051C31.7363 14.0996 31.3867 15.1836 30.6875 15.957C29.9922 16.7305 29.0059 17.1172 27.7285 17.1172C26.4355 17.1172 25.4414 16.7344 24.7461 15.9688C24.0547 15.1992 23.709 14.1074 23.709 12.6934C23.709 11.2793 24.0566 10.1934 24.752 9.43555C25.4512 8.67773 26.4473 8.29883 27.7402 8.29883C29.0137 8.29883 29.998 8.68359 30.6934 9.45312C31.3887 10.2227 31.7363 11.3066 31.7363 12.7051ZM25.1973 12.7051C25.1973 13.7598 25.4102 14.5605 25.8359 15.1074C26.2617 15.6504 26.8926 15.9219 27.7285 15.9219C28.5605 15.9219 29.1875 15.6523 29.6094 15.1133C30.0352 14.5742 30.248 13.7715 30.248 12.7051C30.248 11.6543 30.0371 10.8574 29.6152 10.3145C29.1973 9.77148 28.5723 9.5 27.7402 9.5C26.9004 9.5 26.2656 9.77148 25.8359 10.3145C25.4102 10.8574 25.1973 11.6543 25.1973 12.7051ZM34.9648 17H33.5762V8.43359H38.4102V9.61719H34.9648V12.2949H38.1934V13.4844H34.9648V17ZM41.3516 17H39.9629V8.43359H44.7969V9.61719H41.3516V12.2949H44.5801V13.4844H41.3516V17Z" fill="black" fill-opacity="0.5"/>
</svg>
